<?xml version="1.0" encoding="utf-8"?>
<!-- Generator: Adobe Illustrator 23.1.1, SVG Export Plug-In . SVG Version: 6.00 Build 0)  -->
<svg version="1.1" id="Layer_1" xmlns="http://www.w3.org/2000/svg" xmlns:xlink="http://www.w3.org/1999/xlink" x="0px" y="0px"
	 width="25px" height="25px" viewBox="0 0 25 25" enable-background="new 0 0 25 25" xml:space="preserve">
<g>
	<g>
		<path fill="#2E6FB7" d="M12.5788,0.1253c-5.7986,0-10.4757,4.7656-10.4757,10.6119c0,4.6825,2.9813,8.6447,7.1388,10.0577
			l3.3369,4.1561l3.3369-4.1284c4.1575-1.4131,7.1388-5.3752,7.1388-10.0577C23.0545,4.891,18.3774,0.1253,12.5788,0.1253z
			 M10.6368,7.5786h3.8566c0.1915,0,0.3556,0.1662,0.3556,0.3602c0,0.194-0.1641,0.3602-0.3556,0.3602h-3.8566
			c-0.1915,0-0.3556-0.1662-0.3556-0.3602C10.2812,7.7448,10.4454,7.5786,10.6368,7.5786z M9.5975,9.5735h5.9627
			c0.1915,0,0.3556,0.1662,0.3556,0.3602s-0.1641,0.3602-0.3556,0.3602H9.5975c-0.1915,0-0.3556-0.1662-0.3556-0.3602
			C9.2145,9.7397,9.3786,9.5735,9.5975,9.5735z M16.7363,12.9538H8.4213c-0.1915,0-0.3556-0.1662-0.3556-0.3602
			s0.1641-0.3602,0.3556-0.3602h8.3149c0.1915,0,0.3556,0.1662,0.3556,0.3602S16.9551,12.9538,16.7363,12.9538z"/>
		<rect x="7.6542" y="6.4639" fill="#2E6FB7" width="10.0286" height="7.3532"/>
	</g>
	<g>
		<path fill="#FFFFFF" d="M17.7799,12.4843c-0.2067,0.0055-0.4102-0.0529-0.5834-0.1673c-0.1818-0.1143-0.3833-0.1928-0.5939-0.2314
			c1.0086-1.5699,1.5006-4.2469,1.5287-4.3787c0.0352-0.1933-0.091-0.379-0.2818-0.4147c-0.0584-0.0109-0.1187-0.0067-0.175,0.0124
			l-3.2998,1.068l-1.9609-0.6621c-0.1448-0.0486-0.2981-0.0656-0.4498-0.0498L9.0822,7.9988L8.1333,7.3581
			C7.9822,7.2347,7.761,7.2589,7.6392,7.412C7.5175,7.5651,7.5413,7.7892,7.6925,7.9125c0.017,0.0138,0.0351,0.026,0.0543,0.0365
			l0.8961,0.5981v1.7799c-0.239,0.2278-0.6115,0.7547-0.7028,1.8903c-0.2208-0.1008-0.4606-0.1518-0.7028-0.1495
			c-0.1941,0-0.3514,0.1594-0.3514,0.356c0,0.1966,0.1573,0.356,0.3514,0.356c0.2056-0.0057,0.408,0.0527,0.5798,0.1673
			c0.2763,0.1764,0.5977,0.2667,0.9242,0.2599c0.3277,0.0073,0.6503-0.083,0.9278-0.2599c0.1716-0.115,0.3742-0.1734,0.5798-0.1673
			c0.2056-0.0057,0.408,0.0527,0.5798,0.1673c0.2763,0.1764,0.5977,0.2667,0.9242,0.2599c0.3265,0.0068,0.6479-0.0835,0.9242-0.2599
			c0.1718-0.1146,0.3742-0.173,0.5798-0.1673c0.2067-0.0055,0.4102,0.0529,0.5834,0.1673c0.5686,0.3467,1.2798,0.3467,1.8485,0
			c0.3578-0.2228,0.8089-0.2228,1.1667,0c0.2775,0.1726,0.5988,0.2592,0.9242,0.2492c0.1941,0,0.3514-0.1594,0.3514-0.356
			C18.1313,12.6437,17.974,12.4843,17.7799,12.4843z M12.1571,11.2027c-0.1941,0-0.3514-0.1594-0.3514-0.356
			s0.1573-0.356,0.3514-0.356s0.3514,0.1594,0.3514,0.356S12.3512,11.2027,12.1571,11.2027z M9.3458,10.0031V8.6752l2.6954-0.3204
			c0.0511-0.0065,0.1029-0.0004,0.1511,0.0178l1.0543,0.356L9.3458,10.0031z M13.2114,10.8468c-0.1941,0-0.3514-0.1594-0.3514-0.356
			c0-0.1966,0.1573-0.356,0.3514-0.356c0.1941,0,0.3514,0.1594,0.3514,0.356C13.5628,10.6874,13.4055,10.8468,13.2114,10.8468z
			 M14.2657,10.4908c-0.1941,0-0.3514-0.1594-0.3514-0.356s0.1573-0.356,0.3514-0.356c0.1941,0,0.3514,0.1594,0.3514,0.356
			S14.4597,10.4908,14.2657,10.4908z"/>
	</g>
</g>
</svg>
