<?xml version="1.0" encoding="utf-8"?>
<!-- Generator: Adobe Illustrator 23.1.1, SVG Export Plug-In . SVG Version: 6.00 Build 0)  -->
<svg version="1.1" id="Layer_1" xmlns="http://www.w3.org/2000/svg" xmlns:xlink="http://www.w3.org/1999/xlink" x="0px" y="0px"
	 width="25px" height="25px" viewBox="0 0 25 25" enable-background="new 0 0 25 25" xml:space="preserve">
<g>
	<g>
		<path fill="#8D95A6" d="M12.5668,0.1897c-5.8163,0-10.5077,4.7189-10.5077,10.5077c0,4.6366,2.9904,8.5598,7.1606,9.959
			l3.3471,4.1153l3.3471-4.0879c4.1702-1.3992,7.1606-5.3224,7.1606-9.959C23.0746,4.9085,18.3831,0.1897,12.5668,0.1897z
			 M10.6189,7.5698h3.8684c0.192,0,0.3567,0.1646,0.3567,0.3567c0,0.192-0.1646,0.3567-0.3567,0.3567h-3.8684
			c-0.192,0-0.3567-0.1646-0.3567-0.3567C10.2623,7.7344,10.4269,7.5698,10.6189,7.5698z M9.5764,9.5451h5.9809
			c0.192,0,0.3567,0.1646,0.3567,0.3567c0,0.192-0.1646,0.3567-0.3567,0.3567H9.5764c-0.192,0-0.3567-0.1646-0.3567-0.3567
			C9.1923,9.7097,9.3569,9.5451,9.5764,9.5451z M16.737,12.8922H8.3967c-0.192,0-0.3567-0.1646-0.3567-0.3567
			s0.1646-0.3567,0.3567-0.3567h8.3403c0.192,0,0.3567,0.1646,0.3567,0.3567S16.9565,12.8922,16.737,12.8922z"/>
		<rect x="7.6272" y="6.4661" fill="#8D95A6" width="10.0593" height="7.281"/>
	</g>
	<g>
		<path fill="#FFFFFF" d="M9.7913,14.5545v1.1016c0,0.6074,0.4943,1.1016,1.1016,1.1016c0.6074,0,1.1016-0.4943,1.1016-1.1016
			v-1.1016H9.7913z"/>
		<path fill="#FFFFFF" d="M13.4635,14.5545v1.1016c0,0.6074,0.4943,1.1016,1.1016,1.1016s1.1016-0.4943,1.1016-1.1016v-1.1016
			H13.4635z"/>
		<path fill="#FFFFFF" d="M15.6668,5.7413H9.7913c-0.6074,0-1.1016,0.4943-1.1016,1.1016v7.3443
			c0,0.6074,0.4943,1.1016,1.1016,1.1016h5.8754c0.6074,0,1.1016-0.4943,1.1016-1.1016V6.843
			C16.7684,6.2356,16.2741,5.7413,15.6668,5.7413z M11.2602,13.82c-0.6074,0-1.1016-0.4943-1.1016-1.1016
			s0.4943-1.1016,1.1016-1.1016c0.6074,0,1.1016,0.4943,1.1016,1.1016S11.8676,13.82,11.2602,13.82z M14.1979,13.82
			c-0.6074,0-1.1016-0.4943-1.1016-1.1016s0.4943-1.1016,1.1016-1.1016s1.1016,0.4943,1.1016,1.1016S14.8053,13.82,14.1979,13.82z
			 M15.2996,10.8823h-5.141V7.2102h5.141V10.8823z"/>
	</g>
</g>
</svg>
