<?xml version="1.0" encoding="utf-8"?>
<!-- Generator: Adobe Illustrator 23.1.1, SVG Export Plug-In . SVG Version: 6.00 Build 0)  -->
<svg version="1.1" id="Layer_1" xmlns="http://www.w3.org/2000/svg" xmlns:xlink="http://www.w3.org/1999/xlink" x="0px" y="0px"
	 width="25px" height="25px" viewBox="0 0 25 25" enable-background="new 0 0 25 25" xml:space="preserve">
<g>
	<g>
		<path fill="#F2935D" d="M13.142,0.2221c-5.795,0-10.4693,4.7016-10.4693,10.4693c0,4.6196,2.9795,8.5285,7.1344,9.9226
			l3.3349,4.1002l3.3349-4.0729c4.1549-1.3941,7.1344-5.303,7.1344-9.9226C23.6113,4.9237,18.937,0.2221,13.142,0.2221z
			 M11.2012,7.5751h3.8542c0.1913,0,0.3554,0.164,0.3554,0.3554c0,0.1913-0.164,0.3554-0.3554,0.3554h-3.8542
			c-0.1913,0-0.3554-0.164-0.3554-0.3554C10.8459,7.7392,11.0099,7.5751,11.2012,7.5751z M10.1625,9.5433h5.959
			c0.1913,0,0.3554,0.164,0.3554,0.3554s-0.164,0.3554-0.3554,0.3554h-5.959c-0.1913,0-0.3554-0.164-0.3554-0.3554
			C9.7798,9.7073,9.9438,9.5433,10.1625,9.5433z M17.2969,12.8781H8.9871c-0.1913,0-0.3554-0.164-0.3554-0.3554
			c0-0.1913,0.164-0.3554,0.3554-0.3554h8.3098c0.1913,0,0.3554,0.164,0.3554,0.3554
			C17.6523,12.7141,17.5156,12.8781,17.2969,12.8781z"/>
		<rect x="8.2205" y="6.4755" fill="#F2935D" width="10.0225" height="7.2544"/>
	</g>
	<g>
		<g>
			<path fill-rule="evenodd" clip-rule="evenodd" fill="#FFFFFF" d="M17.1825,12.1257H9.1478c-0.3853,0-0.6987-0.3134-0.6987-0.6987
				c0-0.3853,0.3134-0.6987,0.6987-0.6987h8.0347c0.3853,0,0.6987,0.3134,0.6987,0.6987
				C17.8812,11.8124,17.5678,12.1257,17.1825,12.1257L17.1825,12.1257z M9.1478,11.0777c-0.1927,0-0.3493,0.1567-0.3493,0.3493
				c0,0.1927,0.1567,0.3493,0.3493,0.3493h8.0347c0.1927,0,0.3493-0.1567,0.3493-0.3493c0-0.1927-0.1567-0.3493-0.3493-0.3493
				H9.1478L9.1478,11.0777z"/>
			<path fill-rule="evenodd" clip-rule="evenodd" fill="#FFFFFF" d="M17.8742,11.0777H8.4563c-0.1406,0-0.2693-0.0645-0.3534-0.1769
				c-0.0842-0.1125-0.1097-0.2543-0.0702-0.389L8.722,8.169C8.7927,7.9276,9.018,7.7591,9.2697,7.7591h7.7909
				c0.2517,0,0.477,0.1686,0.5479,0.4099l0.6891,2.3428c0.0395,0.1347,0.014,0.2765-0.0702,0.389
				C18.1434,11.0133,18.0146,11.0777,17.8742,11.0777L17.8742,11.0777z M9.2697,8.1084c-0.0976,0-0.1851,0.0653-0.2126,0.1591
				l-0.6892,2.3428c-0.0114,0.0384,0.0044,0.0674,0.0147,0.0812s0.0335,0.0369,0.0737,0.0369h9.4179
				c0.04,0,0.0632-0.0231,0.0735-0.0369s0.026-0.0428,0.0147-0.0812l-0.6891-2.3428c-0.0276-0.0938-0.1151-0.1591-0.2127-0.1591
				H9.2697L9.2697,8.1084z"/>
			<path fill-rule="evenodd" clip-rule="evenodd" fill="#FFFFFF" d="M14.0385,6.3617h1.572v1.7467h-1.572V6.3617z M14.3878,7.7591
				h0.8733v-1.048h-0.8733V7.7591z"/>
			<path fill-rule="evenodd" clip-rule="evenodd" fill="#FFFFFF" d="M14.7365,6.0108c-0.0879,0-0.163-0.0648-0.1729-0.1539
				c-0.003-0.026-0.0231-0.261,0.1565-0.4616c0.1521-0.17,0.393-0.2562,0.7158-0.2562l0.0185,0.001
				c0.1996,0.0211,0.5319,0.0049,0.6461-0.0976c0.0241-0.0218,0.0341-0.0445,0.0341-0.0781c0-0.0964,0.0783-0.1747,0.1747-0.1747
				c0.0964,0,0.1747,0.0783,0.1747,0.1747c0,0.1329-0.0519,0.2498-0.1502,0.3382c-0.2637,0.2367-0.8061,0.1956-0.9065,0.1858
				c-0.2087,0.0012-0.3621,0.0484-0.4435,0.1364c-0.08,0.0863-0.0728,0.192-0.0725,0.1963c0.0072,0.095-0.0629,0.1801-0.1577,0.1888
				C14.7477,6.0105,14.7421,6.0108,14.7365,6.0108"/>
			<path fill-rule="evenodd" clip-rule="evenodd" fill="#FFFFFF" d="M12.1172,11.7764h2.2707v3.4933h-2.2707V11.7764z
				 M12.4665,14.9204h1.572v-2.7947h-1.572V14.9204z"/>
			<path fill-rule="evenodd" clip-rule="evenodd" fill="#FFFFFF" d="M17.1825,15.2698h-3.144v-1.3973h3.144
				c0.3853,0,0.6987,0.3134,0.6987,0.6987C17.8812,14.9564,17.5678,15.2698,17.1825,15.2698L17.1825,15.2698z M14.3878,14.9204
				h2.7947c0.1927,0,0.3493-0.1567,0.3493-0.3493c0-0.1927-0.1567-0.3493-0.3493-0.3493h-2.7947V14.9204L14.3878,14.9204z"/>
			<path fill-rule="evenodd" clip-rule="evenodd" fill="#FFFFFF" d="M12.4665,15.2698H9.1478c-0.3853,0-0.6987-0.3134-0.6987-0.6987
				c0-0.3853,0.3134-0.6987,0.6987-0.6987h3.3187V15.2698L12.4665,15.2698z M9.1478,14.2218c-0.1927,0-0.3493,0.1567-0.3493,0.3493
				c0,0.1927,0.1567,0.3493,0.3493,0.3493h2.9693v-0.6987H9.1478L9.1478,14.2218z"/>
			<path fill-rule="evenodd" clip-rule="evenodd" fill="#FFFFFF" d="M12.4665,14.2218H9.1478c-0.3853,0-0.6987-0.3134-0.6987-0.6987
				s0.3134-0.6987,0.6987-0.6987h3.3187V14.2218L12.4665,14.2218z M9.1478,13.1737c-0.1927,0-0.3493,0.1567-0.3493,0.3493
				s0.1567,0.3493,0.3493,0.3493h2.9693v-0.6987H9.1478L9.1478,13.1737z"/>
			<path fill-rule="evenodd" clip-rule="evenodd" fill="#FFFFFF" d="M17.1825,14.2218h-3.144v-1.3973h3.144
				c0.3853,0,0.6987,0.3134,0.6987,0.6987S17.5678,14.2218,17.1825,14.2218L17.1825,14.2218z M14.3878,13.8724h2.7947
				c0.1927,0,0.3493-0.1567,0.3493-0.3493s-0.1567-0.3493-0.3493-0.3493h-2.7947V13.8724L14.3878,13.8724z"/>
			<path fill-rule="evenodd" clip-rule="evenodd" fill="#FFFFFF" d="M12.4665,13.1737H9.1478c-0.3853,0-0.6987-0.3134-0.6987-0.6987
				s0.3134-0.6987,0.6987-0.6987h3.3187V13.1737L12.4665,13.1737z M9.1478,12.1257c-0.1927,0-0.3493,0.1567-0.3493,0.3493
				s0.1567,0.3493,0.3493,0.3493h2.9693v-0.6987H9.1478L9.1478,12.1257z"/>
			<path fill-rule="evenodd" clip-rule="evenodd" fill="#FFFFFF" d="M17.1825,13.1737h-3.144v-1.3973h3.144
				c0.3853,0,0.6987,0.3134,0.6987,0.6987S17.5678,13.1737,17.1825,13.1737L17.1825,13.1737z M14.3878,12.8244h2.7947
				c0.1927,0,0.3493-0.1567,0.3493-0.3493s-0.1567-0.3493-0.3493-0.3493h-2.7947V12.8244L14.3878,12.8244z"/>
			<path fill-rule="evenodd" clip-rule="evenodd" fill="#FFFFFF" d="M12.9905,13.5231c0,0.0964-0.0783,0.1747-0.1747,0.1747
				s-0.1747-0.0783-0.1747-0.1747c0-0.0964,0.0783-0.1747,0.1747-0.1747S12.9905,13.4267,12.9905,13.5231"/>
		</g>
	</g>
</g>
</svg>
