<?xml version="1.0" encoding="utf-8"?>
<!-- Generator: Adobe Illustrator 23.1.1, SVG Export Plug-In . SVG Version: 6.00 Build 0)  -->
<svg version="1.1" id="Layer_1" xmlns="http://www.w3.org/2000/svg" xmlns:xlink="http://www.w3.org/1999/xlink" x="0px" y="0px"
	 width="25px" height="25px" viewBox="0 0 25 25" enable-background="new 0 0 25 25" xml:space="preserve">
<g>
	<rect x="6.401" y="5.4298" fill="#FFFFFF" width="12.2799" height="9.7778"/>
	<g>
		<path fill="#415A2A" d="M13.7065,8.7398l1.394,5.0021c0.6833-0.492,1.558-0.7654,2.1867-0.902
			C16.4946,12.1565,15.1006,10.8171,13.7065,8.7398z"/>
		<path fill="#415A2A" d="M7.9664,12.8125c0.6287,0.1367,1.5034,0.41,2.1867,0.902l1.3667-5.0021
			C10.1531,10.8171,8.7318,12.1565,7.9664,12.8125z"/>
		<polygon fill="#415A2A" points="10.7818,13.9879 14.4446,13.9879 12.6132,7.4277 		"/>
		<path fill="#415A2A" d="M12.6132,0.2663c-5.7948,0-10.4689,4.7014-10.4689,10.4689c0,4.6194,2.9794,8.5282,7.1342,9.9222
			l3.3347,4.1001l3.3347-4.0728c4.1548-1.394,7.1342-5.3028,7.1342-9.9222C23.0821,4.9677,18.408,0.2663,12.6132,0.2663z
			 M18.408,13.2225c-0.0547,0.082-0.1367,0.1367-0.246,0.1367l0,0c-0.0273,0-2.132,0.246-3.0067,1.2027c0,0,0,0-0.0273,0.0273
			c-0.0547,0.082-0.1367,0.1093-0.2187,0.1093h-4.5921c-0.1093,0-0.1913-0.0547-0.2733-0.1093
			c-0.8747-0.984-2.9794-1.2027-3.0067-1.2027c-0.1913-0.0273-0.328-0.1913-0.3007-0.3827c0-0.1093,0.0547-0.1913,0.1367-0.246l0,0
			c0.0273-0.0273,3.1161-2.1594,5.3848-6.7788c0.082-0.164,0.3007-0.246,0.4647-0.164c0.0547,0.0273,0.082,0.0547,0.1367,0.1093
			c0,0,0.0273,0.0273,0.0273,0.0547c2.2687,4.6194,5.3574,6.7515,5.3848,6.7788C18.4626,12.8399,18.5173,13.0585,18.408,13.2225z"/>
	</g>
</g>
</svg>
