<?xml version="1.0" encoding="utf-8"?>
<!-- Generator: Adobe Illustrator 23.1.1, SVG Export Plug-In . SVG Version: 6.00 Build 0)  -->
<svg version="1.1" id="Layer_1" xmlns="http://www.w3.org/2000/svg" xmlns:xlink="http://www.w3.org/1999/xlink" x="0px" y="0px"
	 width="25px" height="25px" viewBox="0 0 25 25" enable-background="new 0 0 25 25" xml:space="preserve">
<g>
	<rect x="6.0123" y="4.8855" fill="#FFFFFF" width="13.2679" height="11.1637"/>
	<g>
		<rect x="8.7993" y="12.4668" fill="#7B98BE" width="7.6941" height="2.2179"/>
		<path fill="#7B98BE" d="M8.7993,7.0726v4.6548h4.0798c0.0274-0.3012,0.2738-0.5476,0.575-0.5476
			c0.3012,0,0.5476,0.2464,0.575,0.5476h0.931c0-0.0274,0-0.0821,0-0.1095c0-0.3012,0.2464-0.575,0.575-0.575
			c0.3286,0,0.575,0.2464,0.575,0.575c0,0.0548,0,0.0821,0,0.1095h0.4381V7.0726L12.6874,5.731L8.7993,7.0726z M12.1945,11.1525
			h-2.081c-0.1917,0-0.356-0.1643-0.356-0.356c0-0.1917,0.1643-0.356,0.356-0.356h2.081c0.1917,0,0.356,0.1643,0.356,0.356
			C12.5505,10.9882,12.3862,11.1525,12.1945,11.1525z M12.1945,9.8382h-2.081c-0.1917,0-0.356-0.1643-0.356-0.356
			s0.1643-0.356,0.356-0.356h2.081c0.1917,0,0.356,0.1643,0.356,0.356S12.3862,9.8382,12.1945,9.8382z M14.3577,9.7013
			c0.3012,0,0.575,0.2464,0.575,0.575s-0.2464,0.575-0.575,0.575c-0.3286,0-0.575-0.2464-0.575-0.575S14.0565,9.7013,14.3577,9.7013
			z"/>
		<path fill="#7B98BE" d="M12.7969,0.2273c-5.8048,0-10.487,4.7096-10.487,10.487c0,4.6274,2.9846,8.543,7.1465,9.9394
			l3.3405,4.1072l3.3405-4.0798c4.162-1.3964,7.1465-5.312,7.1465-9.9394C23.284,4.9369,18.6018,0.2273,12.7969,0.2273z
			 M18.7113,8.9346c0,0.1917-0.1643,0.356-0.356,0.356c-0.1917,0-0.356-0.1643-0.356-0.356V7.5929l-0.7393-0.2464v7.6941
			c0,0,0,0,0,0.0274c0,0,0,0,0,0.0274c0,0.1917-0.1643,0.356-0.356,0.356H8.4159c-0.1917,0-0.356-0.1643-0.356-0.356
			c0,0,0,0,0-0.0274c0,0,0,0,0-0.0274V7.3191L7.3207,7.5929v1.3417c0,0.1917-0.1643,0.356-0.356,0.356s-0.356-0.1643-0.356-0.356
			V7.0726l6.0786-2.0536l6.0239,2.0536L18.7113,8.9346L18.7113,8.9346z"/>
	</g>
</g>
</svg>
