<?xml version="1.0" encoding="utf-8"?>
<!-- Generator: Adobe Illustrator 23.1.1, SVG Export Plug-In . SVG Version: 6.00 Build 0)  -->
<svg version="1.1" id="Layer_1" xmlns="http://www.w3.org/2000/svg" xmlns:xlink="http://www.w3.org/1999/xlink" x="0px" y="0px"
	 width="25px" height="25px" viewBox="0 0 25 25" enable-background="new 0 0 25 25" xml:space="preserve">
<g>
	<rect x="7.6445" y="5.7114" fill="#FFFFFF" width="9.7687" height="10.6484"/>
	<g>
		<path fill="#F9A61B" d="M16.3333,10.5355c0.1917-0.4381-0.0548-1.2322-0.7119-2.2179c-0.1643-0.2738-0.356-0.4929-0.5203-0.7119
			v3.4775C15.6214,11.0557,16.169,10.9188,16.3333,10.5355z"/>
		<path fill="#F9A61B" d="M12.6094,0.2946c-5.805,0-10.4873,4.7097-10.4873,10.4873c0,4.6276,2.9846,8.5432,7.1467,9.9397
			l3.3406,4.1073L15.95,20.749c4.1621-1.3965,7.1467-5.3121,7.1467-9.9397C23.0967,5.0043,18.4144,0.2946,12.6094,0.2946z
			 M12.2808,8.6187c0,2.1084-0.9584,2.6561-1.7251,2.7656v4.2168c0,0.1917-0.1643,0.356-0.356,0.356s-0.356-0.1643-0.356-0.356
			v-4.2168C9.0497,11.2748,8.064,10.7272,8.064,8.6187V6.5925c0-0.1917,0.1643-0.356,0.356-0.356s0.356,0.1643,0.356,0.356v2.0263
			c0,1.5608,0.6024,1.9167,1.0405,2.0263V6.5925c0-0.1917,0.1643-0.356,0.356-0.356s0.356,0.1643,0.356,0.356v4.0252
			c1.0405-0.2191,1.0405-1.5334,1.0405-1.9989V6.5925c0-0.1917,0.1643-0.356,0.356-0.356c0.1917,0,0.356,0.1643,0.356,0.356
			C12.2808,6.5925,12.2808,8.6187,12.2808,8.6187z M17.0179,10.8367c-0.2738,0.6024-0.9036,0.931-1.9167,0.9858v3.7513
			c0,0.1917-0.1643,0.356-0.356,0.356s-0.356-0.1643-0.356-0.356V6.5925c0-0.1643,0.0821-0.3012,0.2464-0.356
			c0.1369-0.0548,0.3012-0.0274,0.4107,0.0821C15.2928,6.6472,17.7024,9.2759,17.0179,10.8367z"/>
	</g>
</g>
</svg>
