<?xml version="1.0" encoding="utf-8"?>
<!-- Generator: Adobe Illustrator 23.1.1, SVG Export Plug-In . SVG Version: 6.00 Build 0)  -->
<svg version="1.1" id="Layer_1" xmlns="http://www.w3.org/2000/svg" xmlns:xlink="http://www.w3.org/1999/xlink" x="0px" y="0px"
	 width="25px" height="25px" viewBox="0 0 25 25" enable-background="new 0 0 25 25" xml:space="preserve">
<g>
	<rect x="7.5633" y="5.1647" fill="#FFFFFF" width="9.8392" height="10.6948"/>
	<g>
		<path fill="#A71E22" d="M10.2031,14.6992h4.576V6.5491h-4.576V14.6992z M11.3133,7.9571h2.4098c0.1895,0,0.352,0.1625,0.352,0.352
			c0,0.1895-0.1625,0.352-0.352,0.352h-2.4098c-0.1895,0-0.352-0.1625-0.352-0.352C10.9342,8.1196,11.0967,7.9571,11.3133,7.9571z
			 M11.3133,9.2839h2.4098c0.1895,0,0.352,0.1625,0.352,0.352s-0.1625,0.352-0.352,0.352h-2.4098
			c-0.1895,0-0.352-0.1625-0.352-0.352C10.9342,9.4463,11.0967,9.2839,11.3133,9.2839z"/>
		<polygon fill="#A71E22" points="16.2683,10.1503 15.5373,8.7152 15.5373,13.1558 16.2683,12.4248 		"/>
		<path fill="#A71E22" d="M12.5047,0.4297c-5.7403,0-10.3704,4.6572-10.3704,10.3704c0,4.576,2.9514,8.448,7.067,9.8289
			l3.3034,4.0615l3.3034-4.0344c4.1157-1.3809,7.067-5.2529,7.067-9.8289C22.8751,5.087,18.2449,0.4297,12.5047,0.4297z
			 M16.9994,15.4303h-1.4621H9.4721H8.0099c-0.1895,0-0.352-0.1625-0.352-0.352c0-0.1895,0.1625-0.352,0.352-0.352h1.4621V5.818
			h6.0381v1.3538c0.0271,0.0271,0.0542,0.0542,0.0812,0.0812l1.408,2.7077v2.7348l-1.4892,1.4351v0.5415h1.4621
			c0.1895,0,0.352,0.1625,0.352,0.352S17.1889,15.4303,16.9994,15.4303z"/>
	</g>
</g>
</svg>
