<?xml version="1.0" encoding="utf-8"?>
<!-- Generator: Adobe Illustrator 23.1.1, SVG Export Plug-In . SVG Version: 6.00 Build 0)  -->
<svg version="1.1" id="Layer_1" xmlns="http://www.w3.org/2000/svg" xmlns:xlink="http://www.w3.org/1999/xlink" x="0px" y="0px"
	 width="25px" height="25px" viewBox="0 0 25 25" enable-background="new 0 0 25 25" xml:space="preserve">
<g>
	<rect x="12.1408" y="12.8637" fill="#745C57" width="1.5695" height="2.5333"/>
	<polygon fill="#745C57" points="12.5813,6.7508 11.177,6.7508 10.9567,9.7797 12.5813,9.7797 	"/>
	<polygon fill="#745C57" points="6.6337,9.7797 7.8177,9.7797 8.2858,6.7783 7.4873,6.7783 	"/>
	<polygon fill="#745C57" points="14.7016,6.7508 13.2972,6.7508 13.2972,9.7797 14.9218,9.7797 	"/>
	<polygon fill="#745C57" points="10.4336,6.7508 9.0293,6.7783 8.5887,9.7797 10.1857,9.7797 	"/>
	<polygon fill="#745C57" points="9.0568,15.3969 11.3973,15.3969 11.3973,12.1202 14.4813,12.1202 14.4813,15.3969 16.8218,15.3969 
		16.8218,10.5232 9.0568,10.5232 	"/>
	<path fill="#745C57" d="M12.9393,0.1698c-5.8375,0-10.5461,4.7361-10.5461,10.5461c0,4.6535,3.0014,8.591,7.1867,9.9954
		l3.3593,4.1303l3.3593-4.1028c4.1854-1.4043,7.1867-5.3419,7.1867-9.9953C23.4853,4.9059,18.7768,0.1698,12.9393,0.1698z
		 M19.8231,10.4956L19.8231,10.4956c-0.0551,0.0275-0.1101,0.0275-0.1377,0.0275h-2.1202v5.2317c0,0,0,0,0,0.0275c0,0,0,0,0,0.0275
		c0,0.1927-0.1652,0.358-0.358,0.358h-2.6985h-3.1115H8.6988c-0.1927,0-0.358-0.1652-0.358-0.358c0,0,0,0,0-0.0275c0,0,0,0,0-0.0275
		v-5.2317H6.2206c-0.0551,0-0.0826,0-0.1377-0.0275l0,0c-0.1927-0.0551-0.3029-0.2478-0.2478-0.4681l1.129-3.9926h6.0027l0,0l0,0
		h6.0027l1.1014,3.9926C20.126,10.2203,20.0159,10.4406,19.8231,10.4956z"/>
	<polygon fill="#745C57" points="17.5928,6.7783 18.0609,9.7797 19.2449,9.7797 18.3913,6.7783 	"/>
	<polygon fill="#745C57" points="15.445,6.7508 15.6928,9.7797 17.2899,9.7797 16.8493,6.7783 	"/>
</g>
</svg>
