<?xml version="1.0" encoding="utf-8"?>
<!-- Generator: Adobe Illustrator 23.1.1, SVG Export Plug-In . SVG Version: 6.00 Build 0)  -->
<svg version="1.1" id="Layer_1" xmlns="http://www.w3.org/2000/svg" xmlns:xlink="http://www.w3.org/1999/xlink" x="0px" y="0px"
	 width="25px" height="25px" viewBox="0 0 25 25" enable-background="new 0 0 25 25" xml:space="preserve">
<g>
	<g>
		<path fill="#A6866A" d="M12.5759,0.3036c-5.8134,0-10.5025,4.7165-10.5025,10.5025c0,4.6343,2.989,8.5555,7.157,9.954
			l3.3454,4.1132l3.3454-4.0858c4.1681-1.3985,7.157-5.3198,7.157-9.954C23.0784,5.0201,18.3893,0.3036,12.5759,0.3036z
			 M10.629,7.68h3.8664c0.192,0,0.3565,0.1645,0.3565,0.3565c0,0.192-0.1645,0.3565-0.3565,0.3565H10.629
			c-0.192,0-0.3565-0.1645-0.3565-0.3565C10.2725,7.8445,10.437,7.68,10.629,7.68z M9.5869,9.6544h5.9779
			c0.192,0,0.3565,0.1645,0.3565,0.3565c0,0.192-0.1645,0.3565-0.3565,0.3565H9.5869c-0.192,0-0.3565-0.1645-0.3565-0.3565
			C9.203,9.8189,9.3676,9.6544,9.5869,9.6544z M16.744,12.9998H8.4078c-0.192,0-0.3565-0.1645-0.3565-0.3565
			c0-0.192,0.1645-0.3565,0.3565-0.3565h8.3362c0.1919,0,0.3565,0.1645,0.3565,0.3565
			C17.1005,12.8353,16.9634,12.9998,16.744,12.9998z"/>
		<rect x="7.6387" y="6.5768" fill="#A6866A" width="10.0543" height="7.2774"/>
	</g>
	<g>
		<path fill="#FFFFFF" d="M17.5751,8.9385c-0.8637-3.3417-4.4014-3.4382-4.8019-3.4382l-0.0249,0.0002
			c-0.0111-0.0004-0.0392-0.0013-0.0825-0.0013c-0.6246,0-3.788,0.1655-4.7274,3.4344c-1.0101,3.5154,1.5047,6.7375,1.6117,6.8724
			c0.0447,0.0567,0.4509,0.555,0.9283,0.555c0.1491,0,0.3675-0.0508,0.5612-0.293c0.4139-0.5175,0.2398-1.0856,0.0934-1.3081
			c-0.0178-0.0291-1.7656-2.936-0.9893-5.0542c0.0222-0.0697,0.5665-1.7076,2.6133-1.7077l0.0304-0.0003
			c0.3159,0,1.9246,0.0825,2.5698,1.7161c0.0022,0.0049,0.2079,0.5062,0.188,1.373c-0.0184,0.8023-0.2396,2.091-1.1872,3.6711
			l-0.0078,0.0119c-0.0171,0.028-0.4116,0.6917,0.1049,1.3373c0.1415,0.1703,0.3283,0.2604,0.5405,0.2604
			c0.409,0,0.8117-0.3344,0.9756-0.5535l0.0212-0.0328c0.0045-0.0067,0.0116-0.0172,0.0213-0.0313
			C16.5781,14.9185,18.3591,11.9712,17.5751,8.9385z M8.3498,10.6514c0-0.2594,0.2111-0.4705,0.4705-0.4705
			c0.2595,0,0.4706,0.2111,0.4706,0.4705c0,0.2595-0.2111,0.4705-0.4706,0.4705C8.5609,11.1219,8.3498,10.911,8.3498,10.6514z
			 M9.0387,12.766c-0.2595,0-0.4705-0.2112-0.4705-0.4707c0-0.2594,0.211-0.4704,0.4705-0.4704s0.4706,0.211,0.4706,0.4704
			C9.5093,12.5547,9.2982,12.766,9.0387,12.766z M9.1294,9.4881c-0.2594,0-0.4706-0.2111-0.4706-0.4706s0.2111-0.4706,0.4706-0.4706
			S9.6,8.758,9.6,9.0175S9.3889,9.4881,9.1294,9.4881z M10.0927,8.1294c-0.2595,0-0.4706-0.211-0.4706-0.4705
			c0-0.2594,0.211-0.4706,0.4706-0.4706c0.2594,0,0.4705,0.2111,0.4705,0.4706C10.5632,7.9184,10.3521,8.1294,10.0927,8.1294z
			 M15.434,8.1294c-0.2594,0-0.4705-0.211-0.4705-0.4705c0-0.2594,0.2111-0.4706,0.4705-0.4706s0.4706,0.2111,0.4706,0.4706
			C15.9046,7.9184,15.6934,8.1294,15.434,8.1294z M15.9268,9.0175c0-0.2595,0.2112-0.4706,0.4706-0.4706
			c0.2594,0,0.4705,0.2111,0.4705,0.4706c0,0.2594-0.2111,0.4706-0.4705,0.4706C16.138,9.4881,15.9268,9.277,15.9268,9.0175z
			 M16.4881,12.766c-0.2594,0-0.4705-0.2112-0.4705-0.4707c0-0.2594,0.2111-0.4704,0.4705-0.4704
			c0.2594,0,0.4706,0.211,0.4706,0.4704S16.7474,12.766,16.4881,12.766z M16.7065,11.1219c-0.2595,0-0.4706-0.2109-0.4706-0.4705
			c0-0.2594,0.2111-0.4705,0.4706-0.4705c0.2596,0,0.4705,0.2111,0.4705,0.4705C17.177,10.911,16.966,11.1219,16.7065,11.1219z"/>
	</g>
</g>
</svg>
