<?xml version="1.0" encoding="utf-8"?>
<!-- Generator: Adobe Illustrator 23.1.1, SVG Export Plug-In . SVG Version: 6.00 Build 0)  -->
<svg version="1.1" id="Layer_1" xmlns="http://www.w3.org/2000/svg" xmlns:xlink="http://www.w3.org/1999/xlink" x="0px" y="0px"
	 width="25px" height="25px" viewBox="0 0 25 25" enable-background="new 0 0 25 25" xml:space="preserve">
<g>
	<rect x="6.6635" y="4.5948" fill="#FFFFFF" width="11.8464" height="10.5641"/>
	<path fill="#D89828" d="M9.6527,9.1998C9.6798,9.254,9.6798,9.2811,9.6798,9.3353v4.09h2.844h2.844v-4.09
		c0-0.0542,0-0.0813,0.0271-0.1354l-2.8711-2.844L9.6527,9.1998z"/>
	<path fill="#D89828" d="M12.5901,0.3354c-5.7789,0-10.4402,4.6886-10.4402,10.4402c0,4.6068,2.9712,8.5048,7.1146,9.8951
		l3.3256,4.0889l3.3256-4.0616c4.1434-1.3902,7.1146-5.2883,7.1146-9.8951C23.0304,5.024,18.3691,0.3354,12.5901,0.3354z
		 M18.26,11.6752c-0.0818,0.0818-0.1636,0.109-0.2726,0.109c-0.0818,0-0.1908-0.0273-0.2726-0.109l-1.5538-1.5538v4.2797h-3.5709
		H8.9919v-4.2797l-1.5538,1.5538c-0.1363,0.1363-0.3816,0.1363-0.5179,0c-0.1363-0.1363-0.1363-0.3816,0-0.5179l5.6699-5.6699
		l1.3084,1.3084V5.0513c0-0.1908,0.1636-0.3544,0.3544-0.3544s0.3544,0.1636,0.3544,0.3544v2.4533l0,0l3.6255,3.6255
		C18.3963,11.2936,18.3963,11.5389,18.26,11.6752z"/>
</g>
</svg>
