<?xml version="1.0" encoding="utf-8"?>
<!-- Generator: Adobe Illustrator 23.1.1, SVG Export Plug-In . SVG Version: 6.00 Build 0)  -->
<svg version="1.1" id="Layer_1" xmlns="http://www.w3.org/2000/svg" xmlns:xlink="http://www.w3.org/1999/xlink" x="0px" y="0px"
	 width="25px" height="25px" viewBox="0 0 25 25" enable-background="new 0 0 25 25" xml:space="preserve">
<g>
	<g>
		<path fill="#D9B549" d="M12.4786,0.2798c-5.8013,0-10.4807,4.7067-10.4807,10.4807c0,4.6246,2.9828,8.5378,7.1422,9.9334
			l3.3385,4.1047l3.3385-4.0773c4.1594-1.3956,7.1422-5.3088,7.1422-9.9334C22.9592,4.9866,18.2799,0.2798,12.4786,0.2798z
			 M10.5357,7.641h3.8584c0.1916,0,0.3557,0.1642,0.3557,0.3557c0,0.1916-0.1642,0.3557-0.3557,0.3557h-3.8584
			c-0.1916,0-0.3557-0.1642-0.3557-0.3557C10.1799,7.8051,10.3441,7.641,10.5357,7.641z M9.4958,9.6112h5.9655
			c0.1916,0,0.3557,0.1642,0.3557,0.3557s-0.1642,0.3557-0.3557,0.3557H9.4958c-0.1916,0-0.3557-0.1642-0.3557-0.3557
			C9.1127,9.7754,9.2769,9.6112,9.4958,9.6112z M16.638,12.9497H8.3191c-0.1916,0-0.3557-0.1642-0.3557-0.3557
			s0.1642-0.3557,0.3557-0.3557h8.3189c0.1916,0,0.3557,0.1642,0.3557,0.3557S16.8569,12.9497,16.638,12.9497z"/>
		<rect x="7.5516" y="6.5401" fill="#D9B549" width="10.0334" height="7.2623"/>
	</g>
	<g>
		<g>
			<path fill="#FFFFFF" d="M9.6208,8.5382h3.952c2.0851,0,2.8124,1.5153,2.8124,2.6064c0,1.8548-1.2486,2.7155-3.0064,2.7155
				h-1.3941v2.3154H9.6208V8.5382z M11.9847,12.0416h0.9092c0.6183,0,1.2607-0.0485,1.2607-0.8122
				c0-0.691-0.5334-0.7395-1.1153-0.7395h-1.0547C11.9847,10.4899,11.9847,12.0416,11.9847,12.0416z"/>
		</g>
		<polygon fill="#FFFFFF" points="17.5974,8.3563 12.5665,6.8168 7.5357,8.3563 7.5357,6.7925 12.5665,5.2651 17.5974,6.7925 		"/>
	</g>
</g>
</svg>
