<?xml version="1.0" encoding="utf-8"?>
<!-- Generator: Adobe Illustrator 23.1.1, SVG Export Plug-In . SVG Version: 6.00 Build 0)  -->
<svg version="1.1" id="Layer_1" xmlns="http://www.w3.org/2000/svg" xmlns:xlink="http://www.w3.org/1999/xlink" x="0px" y="0px"
	 width="25px" height="25px" viewBox="0 0 25 25" enable-background="new 0 0 25 25" xml:space="preserve">
<g>
	<rect x="6.1517" y="7.5428" fill="#FFFFFF" width="12.9684" height="6.0458"/>
	<path fill="#F29F8D" d="M12.7068,0.2544c-5.8254,0-10.5241,4.7262-10.5241,10.5241c0,4.6438,2.9951,8.5732,7.1718,9.9746
		l3.3523,4.1217l3.3523-4.0942c4.1767-1.4014,7.1718-5.3308,7.1718-9.9746C23.2309,4.9806,18.5322,0.2544,12.7068,0.2544z
		 M8.4202,10.696H8.008v1.9235c0,0.1923-0.1649,0.3572-0.3572,0.3572c-0.1923,0-0.3572-0.1649-0.3572-0.3572V10.696H6.8814
		c-0.1923,0-0.3572-0.1649-0.3572-0.3572c0-0.1923,0.1649-0.3572,0.3572-0.3572h1.5663c0.1923,0,0.3572,0.1649,0.3572,0.3572
		C8.8049,10.5312,8.64,10.696,8.4202,10.696z M15.647,9.1847h-1.209l1.1816,3.2699c0.055,0.1923-0.0275,0.4122-0.2198,0.4671
		c-0.0275,0.0275-0.0824,0.0275-0.1374,0.0275c-0.1649,0-0.3023-0.0824-0.3572-0.2473l-1.264-3.5447h-1.896l-1.2365,3.5722
		c-0.055,0.1649-0.1923,0.2473-0.3572,0.2473c-0.055,0-0.0824,0-0.1374-0.0275c-0.1923-0.055-0.3023-0.2748-0.2198-0.4671
		l1.1816-3.2699h-1.209c-0.1923,0-0.3572-0.1649-0.3572-0.3572c0-0.1923,0.1649-0.3572,0.3572-0.3572h5.8803
		c0.1923,0,0.3572,0.1649,0.3572,0.3572C16.0317,9.0199,15.8668,9.1847,15.647,9.1847z M18.5596,10.696h-0.4122v1.9235
		c0,0.1923-0.1649,0.3572-0.3572,0.3572c-0.1923,0-0.3572-0.1649-0.3572-0.3572V10.696h-0.4122
		c-0.1923,0-0.3572-0.1649-0.3572-0.3572c0-0.1923,0.1649-0.3572,0.3572-0.3572h1.5663c0.1923,0,0.3572,0.1649,0.3572,0.3572
		C18.9443,10.5312,18.7795,10.696,18.5596,10.696z"/>
</g>
</svg>
