<?xml version="1.0" encoding="utf-8"?>
<!-- Generator: Adobe Illustrator 23.1.1, SVG Export Plug-In . SVG Version: 6.00 Build 0)  -->
<svg version="1.1" id="Layer_1" xmlns="http://www.w3.org/2000/svg" xmlns:xlink="http://www.w3.org/1999/xlink" x="0px" y="0px"
	 width="25px" height="25px" viewBox="0 0 25 25" enable-background="new 0 0 25 25" xml:space="preserve">
<g>
	<path fill="#1F5359" d="M12.7125,0.1936c-5.8211,0-10.5165,4.7228-10.5165,10.5165c0,4.6404,2.9929,8.567,7.1666,9.9673
		l3.3499,4.1187l3.3499-4.0913c4.1736-1.4004,7.1666-5.3269,7.1666-9.9673C23.229,4.9164,18.5336,0.1936,12.7125,0.1936z
		 M10.7629,7.5798h3.8716c0.1922,0,0.357,0.1647,0.357,0.357c0,0.1922-0.1647,0.357-0.357,0.357h-3.8716
		c-0.1922,0-0.357-0.1647-0.357-0.357C10.406,7.7446,10.5707,7.5798,10.7629,7.5798z M9.7195,9.5568h5.9859
		c0.1922,0,0.357,0.1647,0.357,0.357c0,0.1922-0.1647,0.357-0.357,0.357H9.7195c-0.1922,0-0.357-0.1647-0.357-0.357
		C9.3351,9.7216,9.4999,9.5568,9.7195,9.5568z M16.8861,12.9067H8.5388c-0.1922,0-0.357-0.1647-0.357-0.357
		c0-0.1922,0.1647-0.357,0.357-0.357h8.3473c0.1922,0,0.357,0.1647,0.357,0.357C17.2431,12.742,17.1058,12.9067,16.8861,12.9067z"/>
	<rect x="7.7687" y="6.4752" fill="#1F5359" width="10.0677" height="7.2871"/>
	<path fill-rule="evenodd" clip-rule="evenodd" fill="#FFFFFF" d="M7.4666,14.0513h10.5903V6.2318H7.4666V14.0513z M16.8233,6.9341
		H8.6623c1.2337,1.2146,2.4755,2.4211,3.701,3.6438c0.2077,0.2074,0.5524,0.2062,0.7591,0
		C14.348,9.3553,15.5898,8.1487,16.8233,6.9341L16.8233,6.9341z M17.2584,12.8189l0.0015-5.3344l-2.6571,2.619L17.2584,12.8189z
		 M8.6814,13.349h8.123l-2.6951-2.733c-0.1897,0.1897-0.3587,0.4029-0.5692,0.5692c-0.5986,0.4736-0.9958,0.4736-1.5943,0
		c-0.2105-0.1664-0.3796-0.3795-0.5694-0.5692L8.6814,13.349z M8.2258,7.4845l0.0025,5.3282l2.6548-2.7092L8.2258,7.4845z"/>
</g>
</svg>
