<?xml version="1.0" encoding="utf-8"?>
<!-- Generator: Adobe Illustrator 23.1.1, SVG Export Plug-In . SVG Version: 6.00 Build 0)  -->
<svg version="1.1" id="Layer_1" xmlns="http://www.w3.org/2000/svg" xmlns:xlink="http://www.w3.org/1999/xlink" x="0px" y="0px"
	 width="25px" height="25px" viewBox="0 0 25 25" enable-background="new 0 0 25 25" xml:space="preserve">
<g>
	<g>
		<path fill="#212D18" d="M12.4071,0.2061c-5.821,0-10.5162,4.7227-10.5162,10.5162c0,4.6403,2.9929,8.5667,7.1664,9.9671
			l3.3498,4.1186l3.3498-4.0912c4.1735-1.4003,7.1664-5.3268,7.1664-9.9671C22.9233,4.9288,18.2281,0.2061,12.4071,0.2061z
			 M16.965,15.4176h-1.4827H9.3319H7.8492c-0.1922,0-0.3569-0.1647-0.3569-0.3569c0-0.1922,0.1647-0.3569,0.3569-0.3569h1.4827
			V5.6702h6.123V7.043c0.0275,0.0275,0.0549,0.0549,0.0824,0.0824l1.4278,2.7458v2.7732l-1.5102,1.4552v0.5491h1.4827
			c0.1922,0,0.3569,0.1647,0.3569,0.3569S17.1572,15.4176,16.965,15.4176z"/>
		<rect x="7.1652" y="5.1843" fill="#212D18" width="11.2889" height="11.1038"/>
	</g>
	<g>
		<polygon fill="#FFFFFF" points="14.6037,12.5134 13.773,13.4638 11.1436,13.4638 10.2894,12.5054 7.7384,14.4706 7.7384,16.2828 
			17.1429,16.2828 17.1429,14.4706 		"/>
		<polygon fill="#FFFFFF" points="16.3592,7.4232 14.7918,7.4232 14.7918,6.6178 13.2244,5.0069 11.657,5.0069 10.0896,6.6178 
			10.0896,7.4232 8.5221,7.4232 8.5221,8.2286 16.3592,8.2286 		"/>
		<polygon fill="#FFFFFF" points="10.0896,9.0984 10.0896,11.0838 11.4885,12.6584 13.4242,12.6584 14.7918,11.0838 14.7918,9.0984 
			14.7252,9.034 10.1601,9.034 		"/>
	</g>
</g>
</svg>
