<?xml version="1.0" encoding="utf-8"?>
<!-- Generator: Adobe Illustrator 23.1.1, SVG Export Plug-In . SVG Version: 6.00 Build 0)  -->
<svg version="1.1" id="Layer_1" xmlns="http://www.w3.org/2000/svg" xmlns:xlink="http://www.w3.org/1999/xlink" x="0px" y="0px"
	 width="25px" height="25px" viewBox="0 0 25 25" enable-background="new 0 0 25 25" xml:space="preserve">
<g>
	<g>
		<path fill="#A65198" d="M12.6559,0.1729c-5.8243,0-10.5222,4.7254-10.5222,10.5222c0,4.6429,2.9946,8.5716,7.1705,9.9727
			l3.3517,4.121l3.3517-4.0935c4.1759-1.4011,7.1705-5.3298,7.1705-9.9727C23.1781,4.8983,18.4802,0.1729,12.6559,0.1729z
			 M10.7053,7.5632h3.8737c0.1923,0,0.3571,0.1648,0.3571,0.3571c0,0.1923-0.1648,0.3571-0.3571,0.3571h-3.8737
			c-0.1923,0-0.3571-0.1648-0.3571-0.3571C10.3482,7.728,10.513,7.5632,10.7053,7.5632z M9.6614,9.5412h5.9891
			c0.1923,0,0.3571,0.1648,0.3571,0.3571s-0.1648,0.3571-0.3571,0.3571H9.6614c-0.1923,0-0.3571-0.1648-0.3571-0.3571
			C9.2767,9.7061,9.4416,9.5412,9.6614,9.5412z M16.8318,12.893H8.48c-0.1923,0-0.3571-0.1648-0.3571-0.3571
			s0.1648-0.3571,0.3571-0.3571h8.3518c0.1923,0,0.3571,0.1648,0.3571,0.3571S17.0516,12.893,16.8318,12.893z"/>
		<rect x="7.7095" y="6.458" fill="#A65198" width="10.0731" height="7.291"/>
	</g>
	<g>
		<path fill="#FFFFFF" d="M12.7317,5.3334c-0.18,0-0.326,0.146-0.326,0.326v9.7801c0,0.18,0.146,0.326,0.326,0.326
			c0.18,0,0.326-0.146,0.326-0.326V5.6594C13.0577,5.4793,12.9117,5.3334,12.7317,5.3334z"/>
		<circle fill="#FFFFFF" cx="8.8197" cy="8.5934" r="1.304"/>
		<circle fill="#FFFFFF" cx="16.6437" cy="8.5934" r="1.304"/>
		<path fill="#FFFFFF" d="M18.5182,10.6603c-0.0618-0.0703-0.1509-0.1107-0.2445-0.1108h-3.26
			c-0.0936,0.0001-0.1827,0.0405-0.2445,0.1108c-0.0611,0.0698-0.0895,0.1623-0.0782,0.2543l0.326,2.608
			c0.0197,0.1634,0.1582,0.2864,0.3227,0.2869h0.652v0.652c0,0.3601,0.2919,0.652,0.652,0.652c0.3601,0,0.652-0.2919,0.652-0.652
			v-0.652h0.6292c0.1647,0.0014,0.3046-0.1203,0.326-0.2836l0.3423-2.608C18.6063,10.8252,18.579,10.7314,18.5182,10.6603z"/>
		<path fill="#FFFFFF" d="M9.7781,10.7613c-0.0477-0.1278-0.17-0.2123-0.3064-0.2119h-1.304
			c-0.1364-0.0004-0.2587,0.0841-0.3064,0.2119l-0.978,2.608c-0.063,0.1687,0.0226,0.3565,0.1913,0.4195
			c0.0368,0.0138,0.0758,0.0207,0.1152,0.0206h0.978v0.652c0,0.3601,0.2919,0.652,0.652,0.652s0.652-0.2919,0.652-0.652v-0.652
			h0.978c0.18,0.0006,0.3265-0.1449,0.3271-0.3249c0.0001-0.0393-0.0069-0.0783-0.0206-0.1152L9.7781,10.7613z"/>
	</g>
</g>
</svg>
