<?xml version="1.0" encoding="utf-8"?>
<!-- Generator: Adobe Illustrator 23.1.1, SVG Export Plug-In . SVG Version: 6.00 Build 0)  -->
<svg version="1.1" id="Layer_1" xmlns="http://www.w3.org/2000/svg" xmlns:xlink="http://www.w3.org/1999/xlink" x="0px" y="0px"
	 width="25px" height="25px" viewBox="0 0 25 25" enable-background="new 0 0 25 25" xml:space="preserve">
<g>
	<path fill="#F48DA1" d="M13.023,0.3598c-5.7121,0-10.3195,4.6343-10.3195,10.3195c0,4.5535,2.9369,8.4065,7.0323,9.7806
		l3.2871,4.0416l3.2871-4.0146c4.0954-1.3741,7.0323-5.2271,7.0323-9.7806C23.3425,4.9941,18.7351,0.3598,13.023,0.3598z
		 M11.11,7.6077h3.7991c0.1886,0,0.3503,0.1617,0.3503,0.3503c0,0.1886-0.1617,0.3503-0.3503,0.3503H11.11
		c-0.1886,0-0.3503-0.1617-0.3503-0.3503C10.7598,7.7693,10.9214,7.6077,11.11,7.6077z M10.0862,9.5476h5.8737
		c0.1886,0,0.3503,0.1617,0.3503,0.3503s-0.1617,0.3503-0.3503,0.3503h-5.8737c-0.1886,0-0.3503-0.1617-0.3503-0.3503
		C9.709,9.7093,9.8706,9.5476,10.0862,9.5476z M17.1185,12.8347H8.9276c-0.1886,0-0.3503-0.1617-0.3503-0.3503
		c0-0.1886,0.1617-0.3503,0.3503-0.3503h8.1909c0.1886,0,0.3503,0.1617,0.3503,0.3503
		C17.4688,12.6731,17.334,12.8347,17.1185,12.8347z"/>
	<rect x="7.7455" y="6.2039" fill="#F48DA1" width="9.8791" height="7.1506"/>
</g>
<path fill-rule="evenodd" clip-rule="evenodd" fill="#FFFFFF" d="M11.5445,11.9996l-2.2987,0.6052c0,0,0.2282-1.1327,1.7642-1.5368
	c0.2122-0.0557,0.4084-0.0852,0.5919-0.0974c0.054-0.4918,0.1394-0.9308,0.2319-1.2697c0.001-0.0038,0.0021-0.0075,0.0031-0.0114
	c-0.5038-0.0754-0.7952-0.5072-0.7952-0.5072l1.0224-0.2691c0.1408-0.4427,0.2802-0.8003,0.4173-1.016
	c0.2833-0.4451,0.9264-0.4816,1.4074-0.2738c-0.1958-0.6713-0.3929-1.1622-0.551-1.4762c-0.2012-0.3995-0.4066-0.1346-0.8733,0.2469
	c-0.3289,0.2687-1.1596,0.8415-2.4099,1.1707c-1.2505,0.3292-2.2616,0.2415-2.683,0.17C6.7734,7.6337,6.4607,7.5052,6.4901,7.95
	c0.0256,0.3924,0.1211,1.0011,0.3402,1.8047c0.4747,1.7392,2.0403,5.0913,4.9951,4.3165
	C11.6201,13.4055,11.5433,12.6847,11.5445,11.9996z M7.9856,9.987l2.0372-0.5363c0,0-0.0501,0.8177-0.8139,1.0188
	C8.4452,10.6706,7.9856,9.987,7.9856,9.987z"/>
<path fill-rule="evenodd" clip-rule="evenodd" fill="#FFFFFF" d="M18.9124,9.6808c-0.4214,0.0711-1.4325,0.1591-2.683-0.17
	c-1.2505-0.3292-2.0811-0.9018-2.4101-1.171c-0.4667-0.3815-0.6719-0.6465-0.873-0.2468c-0.1774,0.3525-0.4041,0.9265-0.6233,1.7302
	c-0.4748,1.7404-0.8249,5.4143,2.1324,6.1931c2.9567,0.7784,4.5232-2.5755,4.998-4.3159c0.2191-0.8035,0.3148-1.4121,0.3405-1.8047
	C19.8236,9.451,19.5108,9.5795,18.9124,9.6808z M13.0687,11.0923c0,0,0.4596-0.6836,1.2234-0.4825
	c0.7642,0.2011,0.8142,1.0187,0.8142,1.0187L13.0687,11.0923z M14.933,14.2649c-1.5359-0.4046-1.7642-1.5375-1.7642-1.5375
	l4.0746,1.0726C17.2434,13.7999,16.4532,14.6646,14.933,14.2649z M16.1245,11.8964c0,0,0.4597-0.6834,1.2233-0.482
	c0.7639,0.201,0.8142,1.0184,0.8142,1.0184L16.1245,11.8964z"/>
</svg>
