<?xml version="1.0" encoding="utf-8"?>
<!-- Generator: Adobe Illustrator 23.1.1, SVG Export Plug-In . SVG Version: 6.00 Build 0)  -->
<svg version="1.1" id="Layer_1" xmlns="http://www.w3.org/2000/svg" xmlns:xlink="http://www.w3.org/1999/xlink" x="0px" y="0px"
	 width="25px" height="25px" viewBox="0 0 25 25" enable-background="new 0 0 25 25" xml:space="preserve">
<g>
	<g>
		<path fill="#8B5E3C" d="M12.3452,0.4122c-5.8013,0-10.4806,4.7067-10.4806,10.4806c0,4.6246,2.9827,8.5377,7.1421,9.9333
			l3.3385,4.1047l3.3385-4.0773c4.1594-1.3956,7.1421-5.3087,7.1421-9.9333C22.8258,5.1189,18.1465,0.4122,12.3452,0.4122z
			 M17.0131,8.609L15.207,10.415c-0.0821,0.0821-0.1642,0.1095-0.2736,0.1095s-0.1916-0.0274-0.2736-0.1095
			c-0.1368-0.1368-0.1368-0.3831,0-0.5199l1.1767-1.1767H12.881v2.8459h1.0398c0.2189,0,0.3831,0.1642,0.3831,0.3831
			s-0.1642,0.3831-0.3831,0.3831H12.881v4.9256c0,0.2189-0.1642,0.3831-0.3831,0.3831s-0.3831-0.1642-0.3831-0.3831v-4.9256h-2.928
			l1.1767,1.1767c0.1368,0.1368,0.1368,0.3831,0,0.5199c-0.0821,0.0821-0.1642,0.1095-0.2736,0.1095s-0.1916-0.0274-0.2736-0.1095
			l-1.8061-1.8061c-0.0821-0.0821-0.1095-0.1642-0.1095-0.2736s0.0274-0.1916,0.1095-0.2736l1.8061-1.8061
			c0.1368-0.1368,0.3831-0.1368,0.5199,0c0.1368,0.1368,0.1368,0.3831,0,0.5199l-1.1767,1.1767h2.9554V8.7184h-1.0125
			c-0.2189,0-0.3831-0.1642-0.3831-0.3831s0.1642-0.3831,0.3831-0.3831h1.0125v-2.326c0-0.2189,0.1642-0.3831,0.3831-0.3831
			s0.3831,0.1642,0.3831,0.3831v2.326h2.9827l-1.1767-1.1767c-0.1368-0.1368-0.1368-0.3831,0-0.5199
			c0.1368-0.1368,0.3831-0.1368,0.5199,0l1.8061,1.8061C17.1773,8.2259,17.1773,8.4721,17.0131,8.609z"/>
	</g>
	<g id="Artwork_2_1_">
		<g>
			<defs>
				<rect id="SVGID_1_" x="7.9372" y="5.2208" width="9.2355" height="12.3961"/>
			</defs>
			<clipPath id="SVGID_2_">
				<use xlink:href="#SVGID_1_"  overflow="visible"/>
			</clipPath>
			<g clip-path="url(#SVGID_2_)">
				<defs>
					<rect id="SVGID_3_" x="7.9372" y="5.2209" width="9.235" height="12.396"/>
				</defs>
				<clipPath id="SVGID_4_">
					<use xlink:href="#SVGID_3_"  overflow="visible"/>
				</clipPath>
				<path clip-path="url(#SVGID_4_)" fill="#FFFFFF" d="M17.0496,8.5868l-1.806,1.806c-0.082,0.082-0.164,0.109-0.274,0.109
					c-0.109,0-0.191-0.027-0.274-0.109c-0.136-0.137-0.136-0.383,0-0.52l1.177-1.177h-2.955v2.846h1.04
					c0.218,0,0.383,0.164,0.383,0.383c0,0.22-0.165,0.384-0.383,0.384h-1.04v4.925c0,0.219-0.164,0.383-0.383,0.383
					c-0.219,0-0.383-0.164-0.383-0.383v-4.925h-2.928l1.177,1.176c0.136,0.137,0.136,0.383,0,0.52
					c-0.083,0.082-0.165,0.109-0.274,0.109c-0.11,0-0.192-0.027-0.274-0.109l-1.806-1.806c-0.082-0.082-0.109-0.164-0.109-0.274
					c0-0.109,0.027-0.192,0.109-0.274l1.806-1.805c0.137-0.137,0.383-0.137,0.52,0s0.137,0.383,0,0.519l-1.177,1.177h2.956v-2.846
					h-1.013c-0.219,0-0.383-0.164-0.383-0.382c0-0.22,0.164-0.384,0.383-0.384h1.013v-2.326c0-0.219,0.164-0.383,0.383-0.383
					c0.219,0,0.383,0.164,0.383,0.383v2.326h2.983l-1.177-1.176c-0.137-0.137-0.137-0.384,0-0.521c0.137-0.136,0.383-0.136,0.52,0
					l1.806,1.806C17.2136,8.2038,17.2136,8.4498,17.0496,8.5868"/>
			</g>
		</g>
	</g>
</g>
</svg>
