<?xml version="1.0" encoding="utf-8"?>
<!-- Generator: Adobe Illustrator 23.1.1, SVG Export Plug-In . SVG Version: 6.00 Build 0)  -->
<svg version="1.1" id="Layer_1" xmlns="http://www.w3.org/2000/svg" xmlns:xlink="http://www.w3.org/1999/xlink" x="0px" y="0px"
	 width="25px" height="25px" viewBox="0 0 25 25" enable-background="new 0 0 25 25" xml:space="preserve">
<g>
	<g>
		<path fill="#314759" d="M12.781,0.2957c-5.7483,0-10.3849,4.6637-10.3849,10.3849c0,4.5824,2.9555,8.4597,7.0769,9.8426
			l3.308,4.0672l3.308-4.0401c4.1214-1.3828,7.0769-5.2602,7.0769-9.8426C23.1659,4.9594,18.5293,0.2957,12.781,0.2957z
			 M10.8559,7.5895h3.8232c0.1898,0,0.3525,0.1627,0.3525,0.3525c0,0.1898-0.1627,0.3525-0.3525,0.3525h-3.8232
			c-0.1898,0-0.3525-0.1627-0.3525-0.3525C10.5034,7.7522,10.6661,7.5895,10.8559,7.5895z M9.8255,9.5418h5.911
			c0.1898,0,0.3525,0.1627,0.3525,0.3525s-0.1627,0.3525-0.3525,0.3525h-5.911c-0.1898,0-0.3525-0.1627-0.3525-0.3525
			C9.4459,9.7045,9.6086,9.5418,9.8255,9.5418z M16.9024,12.8498H8.6596c-0.1898,0-0.3525-0.1627-0.3525-0.3525
			s0.1627-0.3525,0.3525-0.3525h8.2428c0.1898,0,0.3525,0.1627,0.3525,0.3525S17.1193,12.8498,16.9024,12.8498z"/>
		<rect x="7.8991" y="6.4987" fill="#314759" width="9.9417" height="7.1959"/>
	</g>
	<g>
		<path fill="#FFFFFF" d="M17.1621,10.4264h-0.3556V9.3596c-0.0021-1.7478-1.1633-3.2821-2.8449-3.7588V5.0923
			c0-0.5892-0.4776-1.0668-1.0668-1.0668c-0.5892,0-1.0668,0.4776-1.0668,1.0668v0.5085c-1.6815,0.4767-2.8428,2.011-2.8449,3.7588
			v1.0668H8.6275c-0.1964,0-0.3556,0.1592-0.3556,0.3556v2.1337c-0.0004,0.1529,0.097,0.2889,0.2418,0.3378l1.0988,0.3556
			L8.6986,14.836c-0.1178,0.1571-0.086,0.38,0.0711,0.4979c0.0616,0.0462,0.1364,0.0711,0.2134,0.0711
			c0.1119,0,0.2173-0.0527,0.2845-0.1422l1.0668-1.4224l2.4466,0.8535c0.0738,0.0249,0.1538,0.0249,0.2276,0l2.4573-0.8215
			l1.0668,1.4224c0.0672,0.0895,0.1726,0.1422,0.2845,0.1422c0.0769,0,0.1518-0.025,0.2134-0.0711
			c0.1571-0.1178,0.189-0.3407,0.0711-0.4979l-0.9246-1.2411l1.0988-0.3556c0.1513-0.0508,0.2501-0.1962,0.2418-0.3556V10.782
			C17.5177,10.5856,17.3585,10.4264,17.1621,10.4264z M12.5392,5.0923c0-0.1964,0.1592-0.3556,0.3556-0.3556
			c0.1964,0,0.3556,0.1592,0.3556,0.3556v0.3556c-0.1174,0-0.2347,0-0.3556,0c-0.1209,0-0.2383,0-0.3556,0V5.0923z M9.6944,9.3596
			c0-1.7676,1.4329-3.2005,3.2005-3.2005s3.2005,1.4329,3.2005,3.2005v1.0668h-1.0668V9.3596c0-1.1784-0.9553-2.1337-2.1336-2.1337
			s-2.1337,0.9553-2.1337,2.1337v1.0668H9.6944V9.3596z M14.3173,10.4264h-2.8449V9.3596c0-0.7856,0.6368-1.4224,1.4224-1.4224
			s1.4224,0.6368,1.4224,1.4224V10.4264z M16.8065,12.6596l-3.9117,1.3229l-3.9117-1.3229v-1.522h7.8234V12.6596z"/>
		<path fill="#FFFFFF" d="M10.05,12.5601c0.1964,0,0.3556-0.1592,0.3556-0.3556v-0.3556c0-0.1964-0.1592-0.3556-0.3556-0.3556
			c-0.1964,0-0.3556,0.1592-0.3556,0.3556v0.3556C9.6944,12.4009,9.8536,12.5601,10.05,12.5601z"/>
		<path fill="#FFFFFF" d="M15.7397,12.5601c0.1964,0,0.3556-0.1592,0.3556-0.3556v-0.3556c0-0.1964-0.1592-0.3556-0.3556-0.3556
			s-0.3556,0.1592-0.3556,0.3556v0.3556C15.3841,12.4009,15.5433,12.5601,15.7397,12.5601z"/>
		<path fill="#FFFFFF" d="M12.8948,13.6269c0.1964,0,0.3556-0.1592,0.3556-0.3556v-1.4224c0-0.1964-0.1592-0.3556-0.3556-0.3556
			c-0.1964,0-0.3556,0.1592-0.3556,0.3556v1.4224C12.5392,13.4677,12.6984,13.6269,12.8948,13.6269z"/>
	</g>
</g>
</svg>
