<?xml version="1.0" encoding="utf-8"?>
<!-- Generator: Adobe Illustrator 23.1.1, SVG Export Plug-In . SVG Version: 6.00 Build 0)  -->
<svg version="1.1" id="Layer_1" xmlns="http://www.w3.org/2000/svg" xmlns:xlink="http://www.w3.org/1999/xlink" x="0px" y="0px"
	 width="25px" height="25px" viewBox="0 0 25 25" enable-background="new 0 0 25 25" xml:space="preserve">
<g>
	<path fill="#7F7A62" d="M18.4547,14.0759h-0.8751l-0.5662-1.7502c-0.2831-0.9008-1.1068-1.4928-2.0591-1.4928h-4.9418
		c-0.9523,0-1.776,0.592-2.0591,1.4928l-0.5662,1.7502H6.5121c-0.3861,0-0.6692,0.3089-0.6692,0.6692v0.3861
		c0,0.3861,0.3089,0.6692,0.6692,0.6692h0.2316c-0.1287,0.6177-0.2059,1.2612-0.2059,1.9304v3.2945
		c0,0.3861,0.3089,0.6692,0.6692,0.6692h1.1582c0.3861,0,0.6692-0.3089,0.6692-0.6692V19.97h6.8722v1.0553
		c0,0.3861,0.3089,0.6692,0.6692,0.6692h1.1325c0.3861,0,0.6692-0.3089,0.6692-0.6692v-3.2945c0-0.6435-0.0772-1.2869-0.2059-1.9304
		h0.2316c0.3861,0,0.6692-0.3089,0.6692-0.6692v-0.3861C19.1239,14.3847,18.815,14.0759,18.4547,14.0759z M9.2403,12.7375
		c0.103-0.3346,0.4118-0.5662,0.7722-0.5662H14.98c0.3603,0,0.6435,0.2316,0.7722,0.5662l0.6435,2.0333
		c0.0257,0.103-0.0515,0.1802-0.1287,0.1802H8.7256c-0.103,0-0.1802-0.103-0.1287-0.1802L9.2403,12.7375z M10.0382,18.1168H8.6483
		c-0.2316,0-0.4118-0.1802-0.4118-0.4118v-0.6435c0-0.2574,0.2316-0.4633,0.489-0.4118l1.2869,0.2059
		c0.1802,0.0257,0.3089,0.1544,0.3346,0.3346l0.103,0.4376C10.5015,17.8594,10.2956,18.1168,10.0382,18.1168z M16.7302,17.705
		c0,0.2316-0.1802,0.4118-0.4118,0.4118h-1.3899c-0.2574,0-0.4633-0.2574-0.4118-0.5148l0.103-0.4376
		c0.0257-0.1802,0.1802-0.3089,0.3346-0.3346l1.2869-0.2059c0.2574-0.0515,0.489,0.1544,0.489,0.4118
		C16.7302,17.0358,16.7302,17.705,16.7302,17.705z"/>
	<path fill="#7F7A62" d="M24.1171,3.343H0.8496c-0.3346,0-0.592,0.2574-0.592,0.592v17.1675c0,0.3346,0.2574,0.592,0.592,0.592
		H3.269c0.3346,0,0.592-0.2574,0.592-0.592v-4.9932c0-4.7101,3.6291-8.8283,8.3392-8.9827
		c4.8903-0.1544,8.8797,3.7578,8.8797,8.6224v5.3536c0,0.3346,0.2574,0.592,0.592,0.592h2.4194c0.3346,0,0.592-0.2574,0.592-0.592
		V3.9349C24.7091,3.6261,24.4517,3.343,24.1171,3.343z"/>
</g>
</svg>
