<?xml version="1.0" encoding="utf-8"?>
<!-- Generator: Adobe Illustrator 23.1.1, SVG Export Plug-In . SVG Version: 6.00 Build 0)  -->
<svg version="1.1" id="Layer_1" xmlns="http://www.w3.org/2000/svg" xmlns:xlink="http://www.w3.org/1999/xlink" x="0px" y="0px"
	 width="25px" height="25px" viewBox="0 0 25 25" enable-background="new 0 0 25 25" xml:space="preserve">
<g>
	<path fill="#7F7A62" d="M24.1171,3.343H0.8496c-0.3346,0-0.592,0.2574-0.592,0.592v17.1675c0,0.3346,0.2574,0.592,0.592,0.592
		H3.269c0.3346,0,0.592-0.2574,0.592-0.592v-4.9932c0-4.7101,3.6291-8.8283,8.3392-8.9827
		c4.8903-0.1544,8.8797,3.7578,8.8797,8.6224v5.3536c0,0.3346,0.2574,0.592,0.592,0.592h2.4194c0.3346,0,0.592-0.2574,0.592-0.592
		V3.9349C24.7091,3.6261,24.4517,3.343,24.1171,3.343z"/>
</g>
</svg>
