<?xml version="1.0" encoding="utf-8"?>
<!-- Generator: Adobe Illustrator 23.1.1, SVG Export Plug-In . SVG Version: 6.00 Build 0)  -->
<svg version="1.1" id="Layer_1" xmlns="http://www.w3.org/2000/svg" xmlns:xlink="http://www.w3.org/1999/xlink" x="0px" y="0px"
	 width="25px" height="25px" viewBox="0 0 25 25" enable-background="new 0 0 25 25" xml:space="preserve">
<g>
	<g>
		<path fill="#BF7E78" d="M12.7852,0.1401c-5.8521,0-10.5725,4.748-10.5725,10.5725c0,4.6652,3.0089,8.6126,7.2048,10.0204
			l3.3677,4.1407l3.3677-4.1131c4.1959-1.4078,7.2048-5.3553,7.2048-10.0204C23.3577,4.8881,18.6373,0.1401,12.7852,0.1401z
			 M10.8253,7.5658h3.8922c0.1932,0,0.3589,0.1656,0.3589,0.3589s-0.1656,0.3589-0.3589,0.3589h-3.8922
			c-0.1932,0-0.3589-0.1656-0.3589-0.3589C10.4664,7.7314,10.632,7.5658,10.8253,7.5658z M9.7763,9.5533h6.0178
			c0.1932,0,0.3589,0.1656,0.3589,0.3589s-0.1656,0.3589-0.3589,0.3589H9.7763c-0.1932,0-0.3589-0.1656-0.3589-0.3589
			C9.3898,9.7189,9.5555,9.5533,9.7763,9.5533z M16.9811,12.921H8.5893c-0.1932,0-0.3589-0.1656-0.3589-0.3589
			s0.1656-0.3589,0.3589-0.3589h8.3918c0.1932,0,0.3589,0.1656,0.3589,0.3589S17.2019,12.921,16.9811,12.921z"/>
		<rect x="7.8151" y="6.4552" fill="#BF7E78" width="10.1213" height="7.3259"/>
	</g>
	<path fill="#FFFFFF" d="M16.0508,8.8489L13.6536,7.719c0-0.0181,0-0.0349,0-0.053c-0.0002-0.4863-0.3946-0.8804-0.8809-0.8802
		c-0.4861,0.0002-0.88,0.3942-0.8802,0.8802c0,0.0193,0,0.0373,0,0.0566L9.5278,8.8489c-1.3179,0.0438-2.3508,1.1476-2.307,2.4654
		s1.1476,2.3508,2.4654,2.307c1.1613-0.0386,2.1262-0.9075,2.2857-2.0585h1.6347c0.1796,1.3077,1.3853,2.2221,2.693,2.0424
		c1.3077-0.1796,2.2221-1.3853,2.0424-2.693C18.1834,9.758,17.2154,8.8862,16.0508,8.8489z M12.7754,7.4347
		c0.1251,0.0007,0.2259,0.1026,0.2252,0.2277s-0.1026,0.2259-0.2277,0.2252c-0.1227-0.0007-0.2225-0.099-0.2252-0.2216
		c-0.002-0.1257,0.0983-0.2293,0.224-0.2313C12.773,7.4347,12.7742,7.4347,12.7754,7.4347z M9.6037,12.9759
		c-0.958-0.0027-1.7325-0.7814-1.7298-1.7395c0.0027-0.958,0.7814-1.7325,1.7395-1.7298c0.9542,0.0027,1.7272,0.7756,1.7298,1.7298
		c0.0013,0.9593-0.7753,1.7381-1.7346,1.7395C9.6069,12.9759,9.6053,12.9759,9.6037,12.9759z M11.9719,10.91
		c-0.1132-0.8094-0.6314-1.5051-1.3745-1.8455l1.5805-0.7517c0.3371,0.3135,0.8591,0.3135,1.1962,0l1.6033,0.7553
		c-0.741,0.3408-1.2576,1.0353-1.3708,1.8431h-1.6347V10.91z M15.9749,12.9759c-0.958-0.0013-1.7336-0.779-1.7322-1.737
		s0.779-1.7336,1.737-1.7322c0.9571,0.0013,1.7322,0.7776,1.7322,1.7346C17.7106,12.1997,16.9333,12.9759,15.9749,12.9759z"/>
</g>
</svg>
