<?xml version="1.0" encoding="utf-8"?>
<!-- Generator: Adobe Illustrator 23.1.1, SVG Export Plug-In . SVG Version: 6.00 Build 0)  -->
<svg version="1.1" id="Layer_1" xmlns="http://www.w3.org/2000/svg" xmlns:xlink="http://www.w3.org/1999/xlink" x="0px" y="0px"
	 width="25px" height="25px" viewBox="0 0 25 25" enable-background="new 0 0 25 25" xml:space="preserve">
<g>
	<g>
		<path fill="#F2CF63" d="M12.7801,0.2188c-5.8198,0-10.5141,4.7217-10.5141,10.5141c0,4.6394,2.9923,8.565,7.1649,9.965
			l3.3491,4.1178l3.3491-4.0903c4.1727-1.4,7.1649-5.3257,7.1649-9.965C23.2942,4.9405,18.5999,0.2188,12.7801,0.2188z
			 M10.831,7.6033h3.8707c0.1922,0,0.3569,0.1647,0.3569,0.3569s-0.1647,0.3569-0.3569,0.3569H10.831
			c-0.1922,0-0.3569-0.1647-0.3569-0.3569C10.4741,7.768,10.6389,7.6033,10.831,7.6033z M9.7878,9.5799h5.9845
			c0.1922,0,0.3569,0.1647,0.3569,0.3569c0,0.1922-0.1647,0.3569-0.3569,0.3569H9.7878c-0.1922,0-0.3569-0.1647-0.3569-0.3569
			C9.4035,9.7446,9.5682,9.5799,9.7878,9.5799z M16.9528,12.929H8.6074c-0.1922,0-0.3569-0.1647-0.3569-0.3569
			s0.1647-0.3569,0.3569-0.3569h8.3454c0.1922,0,0.3569,0.1647,0.3569,0.3569S17.1724,12.929,16.9528,12.929z"/>
		<rect x="7.8375" y="6.4989" fill="#F2CF63" width="10.0654" height="7.2854"/>
	</g>
	<g>
		<circle fill-rule="evenodd" clip-rule="evenodd" fill="#FFFFFF" cx="12.82" cy="8.6802" r="1.4186"/>
		<path fill-rule="evenodd" clip-rule="evenodd" fill="#FFFFFF" d="M15.4025,13.5542c-1.3094,0.4729-3.8919,0.4365-5.1286,0
			C9.9101,9.0803,15.7662,9.0803,15.4025,13.5542z"/>
		<circle fill-rule="evenodd" clip-rule="evenodd" fill="#FFFFFF" cx="9.1099" cy="8.1709" r="1.2367"/>
		<path fill-rule="evenodd" clip-rule="evenodd" fill="#FFFFFF" d="M11.3287,12.3902c-1.1639,0.4001-3.3827,0.3637-4.4739,0
			C6.5638,8.4983,11.6196,8.4983,11.3287,12.3902z"/>
		<circle fill-rule="evenodd" clip-rule="evenodd" fill="#FFFFFF" cx="16.6028" cy="8.1709" r="1.2367"/>
		<path fill-rule="evenodd" clip-rule="evenodd" fill="#FFFFFF" d="M14.384,12.3902c1.1276,0.4001,3.3827,0.3637,4.4375,0
			C19.1489,8.4983,14.0567,8.4983,14.384,12.3902z"/>
	</g>
</g>
</svg>
